#!OML:ASF E:\I on waltz\Acrobat_Osman\acrobat\cartwheel_test 2\Patient 1\Session 1\acrobat.ASF
:FULLY-SPECIFIED
:DEGREES
51
root 8.27389 18.5052 -2.14783 -229.149 2.0878 180.783
lowerback -4.95956 0.136545 -0.470045
upperback 1.93471 0.164673 4.08831
thorax 4.78185 0.0574168 4.54225
lowerneck -0.244679 -3.65973 -10.121
upperneck 12.4303 -5.91438 6.69972
head 4.23697 -3.34112 3.46242
rclavicle 1.03368e-014 -1.23246e-014
rhumerus 9.63482 -45.5897 3.57854
rradius 69.7046
rwrist -49.2881
rhand -40.2862 19.7089
rfingers 7.12502
rthumb -13.2437 -9.85034
lclavicle 1.03368e-014 -1.23246e-014
lhumerus -19.7935 52.3221 -16.2006
lradius 67.7326
lwrist 60.2563
lhand -4.70478 66.0656
lfingers 7.12502
lthumb 21.077 -94.9401
rfemur 1.43862 -7.53071 9.1352
rtibia 66.0889
rfoot 25.1549 -7.35281
rtoes 12.8888
lfemur -3.22905 15.7028 -6.67998
ltibia 73.8091
lfoot 25.8562 -9.10079
ltoes -9.74336
52
root 8.22345 18.8282 -1.74756 -233.746 1.71524 180.413
lowerback -2.04777 0.188874 -1.30382
upperback 3.43714 0.329338 4.02857
thorax 4.68034 0.118765 4.95186
lowerneck -1.41663 -4.10421 -9.95753
upperneck 12.7691 -6.38592 6.63252
head 4.57183 -3.53587 3.36059
rclavicle -1.74931e-014 -3.77691e-014
rhumerus -1.53513 -43.8254 4.77963
rradius 66.5719
rwrist -52.0699
rhand -38.7626 18.9023
rfingers 7.12502
rthumb -11.7747 -10.7467
lclavicle -1.74931e-014 -3.77691e-014
lhumerus -32.6064 46.3419 -15.6506
lradius 68.2789
lwrist 60.222
lhand -2.13419 59.5852
lfingers 7.12502
lthumb 23.5447 -271.836
rfemur -4.14453 -7.32134 7.97855
rtibia 75.258
rfoot 24.1384 -4.66247
rtoes 10.8268
lfemur -9.11393 16.4832 -7.25104
ltibia 81.676
lfoot 24.6829 -9.90811
ltoes -19.2073
53
root 8.15906 19.1867 -1.29287 -238.306 1.62288 180.391
lowerback 0.873832 -0.0304485 -1.68564
upperback 4.82363 0.16394 4.07028
thorax 4.48978 0.0660622 5.19897
lowerneck -2.97444 -4.19072 -9.70361
upperneck 13.5479 -6.31762 6.20185
head 5.04895 -3.47946 3.14899
rclavicle -3.18055e-015 -5.48646e-014
rhumerus -9.41639 -39.4021 2.20924
rradius 64.6356
rwrist -50.6016
rhand -39.3887 15.5273
rfingers 7.12502
rthumb -12.3784 -14.0862
lclavicle -3.18055e-015 -5.48646e-014
lhumerus -39.8612 38.8182 -8.94252
lradius 66.8209
lwrist 56.2297
lhand 1.293 51.8937
lfingers 7.12502
lthumb 26.8283 -279.989
rfemur -9.94959 -8.02232 7.18504
rtibia 82.4446
rfoot 22.4582 -3.24396
rtoes 8.81615
lfemur -15.2214 17.0172 -8.17936
ltibia 87.4036
lfoot 24.0661 -10.6729
ltoes -9.73377
54
root 8.11585 19.3573 -0.836368 -242.479 2.40258 180.864
lowerback 3.76025 -0.273088 -0.92387
upperback 6.18453 0.0351423 4.17873
thorax 4.29664 0.114994 4.88392
lowerneck -4.5282 -4.27081 -9.16012
upperneck 13.0829 -6.04636 5.30448
head 5.1088 -3.27987 2.76768
rclavicle 9.93923e-015 1.03368e-014
rhumerus -14.7439 -34.2412 -3.37857
rradius 63.2122
rwrist -51.0154
rhand -40.4028 12.8728
rfingers 7.12502
rthumb -13.3561 -16.6791
lclavicle 9.93923e-015 1.03368e-014
lhumerus -42.4948 32.2453 2.13662
lradius 63.7761
lwrist 53.9249
lhand 0.945723 44.4875
lfingers 7.12502
lthumb 26.4959 -287.345
rfemur -17.9757 -8.45461 8.34472
rtibia 88.3808
rfoot 19.7348 -3.69707
rtoes 7.91314
lfemur -23.522 17.0664 -8.5152
ltibia 92.1227
lfoot 20.6894 -12.2646
ltoes -14.6462
55
root 8.08365 19.4517 -0.388465 -246.205 1.4892 180.184
lowerback 6.4952 -0.285442 -2.31274
upperback 7.08682 0.13535 3.67414
thorax 3.71741 0.181959 5.14342
lowerneck -4.41178 -4.33882 -9.98369
upperneck 9.79466 -5.94129 6.78057
head 4.14289 -3.07365 3.38986
rclavicle 2.38542e-014 -3.45885e-014
rhumerus -15.9244 -31.9888 -12.2182
rradius 60.9967
rwrist -54.0363
rhand -38.8903 10.2145
rfingers 7.12502
rthumb -11.8979 -19.4274
lclavicle 2.38542e-014 -3.45885e-014
lhumerus -41.6518 25.9415 14.8593
lradius 58.6771
lwrist 54.9578
lhand -2.79465 37.4376
lfingers 7.12502
lthumb 22.911 -293.904
rfemur -26.7867 -8.54429 7.63159
rtibia 92.5261
rfoot 15.5988 -3.99844
rtoes 5.7808
lfemur -32.5484 15.5626 -11.9223
ltibia 94.8223
lfoot 18.2256 -12.2079
ltoes -18.0418
56
root 8.03433 19.4055 -0.0240504 -251.819 5.47098 181.214
lowerback 11.7828 -0.689865 2.09804
upperback 8.11279 0.354494 4.18272
thorax 1.8634 0.666865 3.15976
lowerneck -4.69278 -4.53038 -8.91359
upperneck 6.52456 -5.96402 6.42347
head 3.16395 -2.98395 3.12222
rclavicle -3.49861e-014 2.78299e-015
rhumerus -16.9328 -27.5399 -20.9523
rradius 60.2179
rwrist -57.6827
rhand -37.989 11.2444
rfingers 7.12502
rthumb -11.0286 -18.4459
lclavicle -3.49861e-014 2.78299e-015
lhumerus -38.8711 20.1161 26.2288
lradius 53.23
lwrist 49.5218
lhand -5.63263 31.6267
lfingers 7.12502
lthumb 20.1855 -299.402
rfemur -33.6699 -7.13423 13.3592
rtibia 94.7799
rfoot 12.5155 -5.55412
rtoes 6.44681
lfemur -40.0491 14.5949 -7.86518
ltibia 97.2366
lfoot 16.5437 -13.396
ltoes -13.3958
